<svg width="23" height="23" viewBox="0 0 23 23" fill="none" xmlns="http://www.w3.org/2000/svg">
<rect width="23" height="23" rx="11.5" fill="#173685"/>
<g clip-path="url(#clip0_264_1022)">
<path d="M10.25 12.125C10.5184 12.4838 10.8608 12.7807 11.2541 12.9956C11.6473 13.2104 12.0822 13.3382 12.5292 13.3702C12.9761 13.4022 13.4247 13.3377 13.8446 13.1811C14.2644 13.0245 14.6457 12.7794 14.9625 12.4625L16.8375 10.5875C17.4067 9.9981 17.7217 9.20871 17.7146 8.38935C17.7075 7.56998 17.3788 6.7862 16.7994 6.2068C16.22 5.6274 15.4362 5.29874 14.6169 5.29162C13.7975 5.2845 13.0081 5.59948 12.4188 6.16873L11.3438 7.23748" stroke="white" stroke-linecap="round" stroke-linejoin="round"/>
<path d="M12.7499 10.8748C12.4815 10.5159 12.139 10.219 11.7458 10.0042C11.3525 9.78934 10.9177 9.66158 10.4707 9.62957C10.0238 9.59756 9.57514 9.66205 9.15529 9.81866C8.73544 9.97528 8.35418 10.2204 8.03738 10.5373L6.16238 12.4123C5.59314 13.0017 5.27815 13.791 5.28527 14.6104C5.29239 15.4298 5.62105 16.2136 6.20045 16.793C6.77985 17.3724 7.56364 17.701 8.383 17.7081C9.20237 17.7153 9.99175 17.4003 10.5811 16.831L11.6499 15.7623" stroke="white" stroke-linecap="round" stroke-linejoin="round"/>
</g>
<defs>
<clipPath id="clip0_264_1022">
<rect width="15" height="15" fill="white" transform="translate(4 4)"/>
</clipPath>
</defs>
</svg>
